SourceSansPro-Italic_0.ufo
<glyph name="Beta" format="1">
  <advance width="566"/>
  <unicode hex="0392"/>
  <outline>
    <component base="B"/>
    <contour>
      <point x="326.0" y="682.0" type="move" name="aboveUC"/>
    </contour>
    <contour>
      <point x="240.0" y="-22.0" type="move" name="belowLC"/>
    </contour>
  </outline>
</glyph>
<glyph name="Gamma" format="1">
  <advance width="454"/>
  <unicode hex="0393"/>
  <outline>
    <contour>
      <point x="40" y="0" type="line"/>
      <point x="70" y="0" type="line"/>
      <point x="196" y="634" type="line"/>
      <point x="504" y="634" type="line"/>
      <point x="510" y="660" type="line"/>
      <point x="172" y="660" type="line"/>
    </contour>
    <contour>
      <point x="231.0" y="682.0" type="move" name="aboveUC"/>
    </contour>
  </outline>
</glyph>
<glyph name="Iota" format="1">
  <advance width="212"/>
  <unicode hex="0399"/>
  <outline>
    <component base="I"/>
    <contour>
      <point x="202.0" y="682.0" type="move" name="aboveUC"/>
    </contour>
    <contour>
      <point x="62.0" y="-30.0" type="move" name="belowLC"/>
    </contour>
    <contour>
      <point x="54.0" y="0.0" type="move" name="ogonekUC"/>
    </contour>
  </outline>
</glyph>
<glyph name="Kappa" format="1">
  <advance width="522"/>
  <unicode hex="039A"/>
  <outline>
    <component base="K"/>
    <contour>
      <point x="386.0" y="682.0" type="move" name="aboveUC"/>
    </contour>
    <contour>
      <point x="262.0" y="-22.0" type="move" name="belowLC"/>
    </contour>
  </outline>
</glyph>
<glyph name="Xi" format="1">
  <advance width="480"/>
  <unicode hex="039E"/>
  <outline>
    <contour>
      <point x="-11" y="0" type="line"/>
      <point x="382" y="0" type="line"/>
      <point x="387" y="26" type="line"/>
      <point x="-6" y="26" type="line"/>
    </contour>
    <contour>
      <point x="125" y="635" type="line"/>
      <point x="499" y="635" type="line"/>
      <point x="504" y="660" type="line"/>
      <point x="131" y="660" type="line"/>
    </contour>
    <contour>
      <point x="134" y="340" type="line"/>
      <point x="373" y="340" type="line"/>
      <point x="378" y="365" type="line"/>
      <point x="139" y="365" type="line"/>
    </contour>
  </outline>
</glyph>
<glyph name="Rho" format="1">
  <advance width="524"/>
  <unicode hex="03A1"/>
  <outline>
    <component base="P"/>
    <contour>
      <point x="374.0" y="682.0" type="move" name="aboveUC"/>
    </contour>
    <contour>
      <point x="62.0" y="-30.0" type="move" name="belowLC"/>
    </contour>
  </outline>
</glyph>
<glyph name="Tau" format="1">
  <advance width="492"/>
  <unicode hex="03A4"/>
  <outline>
    <component base="T"/>
    <contour>
      <point x="338.0" y="682.0" type="move" name="aboveUC"/>
    </contour>
    <contour>
      <point x="202.0" y="-22.0" type="move" name="belowLC"/>
    </contour>
    <contour>
      <point x="208.0" y="0.0" type="move" name="baseLC"/>
    </contour>
  </outline>
</glyph>
<glyph name="D" format="1">
	<advance width="572"/>
	<outline>
		<contour>
			<point x="40" y="0" type="line"/>
			<point x="194" y="0" type="line" smooth="yes"/>
			<point x="426" y="0"/>
			<point x="546" y="180"/>
			<point x="546" y="404" type="curve" smooth="yes"/>
			<point x="546" y="556"/>
			<point x="458" y="660"/>
			<point x="276" y="660" type="curve" smooth="yes"/>
			<point x="172" y="660" type="line"/>
		</contour>
		<contour>
			<point x="74" y="26" type="line"/>
			<point x="196" y="634" type="line"/>
			<point x="274" y="634" type="line" smooth="yes"/>
			<point x="438" y="634"/>
			<point x="516" y="538"/>
			<point x="516" y="402" type="curve" smooth="yes"/>
			<point x="516" y="202"/>
			<point x="402" y="26"/>
			<point x="196" y="26" type="curve" smooth="yes"/>
		</contour>
		<contour>
			<point name="aboveUC" x="370" y="682" type="move"/>
		</contour>
		<contour>
			<point name="belowLC" x="242" y="-22" type="move"/>
		</contour>
	</outline>
</glyph>
<glyph name="E" format="1">
  <advance width="484"/>
  <outline>
    <contour>
      <point x="40" y="0" type="line"/>
      <point x="390" y="0" type="line"/>
      <point x="396" y="26" type="line"/>
      <point x="74" y="26" type="line"/>
      <point x="138" y="338" type="line"/>
      <point x="400" y="338" type="line"/>
      <point x="406" y="364" type="line"/>
      <point x="142" y="364" type="line"/>
      <point x="196" y="634" type="line"/>
      <point x="508" y="634" type="line"/>
      <point x="514" y="660" type="line"/>
      <point x="172" y="660" type="line"/>
    </contour>
    <contour>
      <point x="362" y="682" type="move" name="aboveUC"/>
    </contour>
    <contour>
      <point x="234" y="-22" type="move" name="belowLC"/>
    </contour>
    <contour>
      <point x="330" y="0" type="move" name="ogonekUC"/>
    </contour>
  </outline>
</glyph>
<glyph name="Ecyr" format="1">
  <advance width="539"/>
  <outline>
    <contour>
      <point x="167" y="340" type="line"/>
      <point x="493" y="340" type="line"/>
      <point x="499" y="365" type="line"/>
      <point x="172" y="365" type="line"/>
    </contour>
    <contour>
      <point x="0" y="82" type="line"/>
      <point x="38" y="24"/>
      <point x="90" y="-12"/>
      <point x="177" y="-12" type="curve" smooth="yes"/>
      <point x="356" y="-12"/>
      <point x="508" y="174"/>
      <point x="508" y="421" type="curve" smooth="yes"/>
      <point x="508" y="574"/>
      <point x="437" y="672"/>
      <point x="312" y="672" type="curve" smooth="yes"/>
      <point x="239" y="672"/>
      <point x="164" y="634"/>
      <point x="122" y="594" type="curve"/>
      <point x="136" y="574" type="line"/>
      <point x="181" y="616"/>
      <point x="247" y="645"/>
      <point x="306" y="645" type="curve" smooth="yes"/>
      <point x="418" y="645"/>
      <point x="479" y="552"/>
      <point x="479" y="418" type="curve" smooth="yes"/>
      <point x="479" y="191"/>
      <point x="345" y="16"/>
      <point x="180" y="16" type="curve" smooth="yes"/>
      <point x="109" y="16"/>
      <point x="61" y="44"/>
      <point x="22" y="100" type="curve"/>
    </contour>
  </outline>
</glyph>
<glyph name="El" format="1">
  <advance width="606"/>
  <outline>
    <contour>
      <point x="-36" y="0" type="line"/>
      <point x="-20" y="-8"/>
      <point x="-6" y="-12"/>
      <point x="20" y="-12" type="curve" smooth="yes"/>
      <point x="86" y="-12"/>
      <point x="142" y="66"/>
      <point x="186" y="188" type="curve" smooth="yes"/>
      <point x="213" y="264"/>
      <point x="236" y="346"/>
      <point x="260" y="464" type="curve" smooth="yes"/>
      <point x="294" y="634" type="line"/>
      <point x="543" y="634" type="line"/>
      <point x="416" y="0" type="line"/>
      <point x="446" y="0" type="line"/>
      <point x="578" y="660" type="line"/>
      <point x="270" y="660" type="line"/>
      <point x="230" y="462" type="line" smooth="yes"/>
      <point x="206" y="346"/>
      <point x="184" y="264"/>
      <point x="156" y="192" type="curve" smooth="yes"/>
      <point x="116" y="88"/>
      <point x="76" y="20"/>
      <point x="16" y="20" type="curve" smooth="yes"/>
      <point x="0" y="20"/>
      <point x="-12" y="22"/>
      <point x="-22" y="28" type="curve"/>
    </contour>
  </outline>
</glyph>
<glyph name="Em" format="1">
  <advance width="676"/>
  <outline>
    <component base="M"/>
    <contour>
      <point x="420.0" y="682.0" type="move" name="aboveUC"/>
    </contour>
    <contour>
      <point x="300.0" y="-30.0" type="move" name="belowLC"/>
    </contour>
  </outline>
</glyph>
<glyph name="Eng.alt" format="1">
  <advance width="600"/>
  <outline>
    <contour>
      <point x="40" y="0" type="line"/>
      <point x="70" y="0" type="line"/>
      <point x="156" y="436" type="line" smooth="yes"/>
      <point x="168" y="496"/>
      <point x="180" y="558"/>
      <point x="190" y="622" type="curve"/>
      <point x="194" y="622" type="line"/>
      <point x="244" y="484" type="line"/>
      <point x="428" y="-2" type="line"/>
      <point x="412" y="-88"/>
      <point x="384" y="-124"/>
      <point x="344" y="-124" type="curve" smooth="yes"/>
      <point x="318" y="-124"/>
      <point x="308" y="-118"/>
      <point x="296" y="-110" type="curve"/>
      <point x="284" y="-134" type="line"/>
      <point x="298" y="-142"/>
      <point x="314" y="-150"/>
      <point x="342" y="-150" type="curve" smooth="yes"/>
      <point x="402" y="-150"/>
      <point x="436" y="-100"/>
      <point x="454" y="-14" type="curve"/>
      <point x="590" y="660" type="line"/>
      <point x="560" y="660" type="line"/>
      <point x="474" y="230" type="line" smooth="yes"/>
      <point x="462" y="168"/>
      <point x="452" y="104"/>
      <point x="442" y="42" type="curve"/>
      <point x="438" y="42" type="line"/>
      <point x="390" y="174" type="line"/>
      <point x="206" y="660" type="line"/>
      <point x="172" y="660" type="line"/>
    </contour>
  </outline>
</glyph>
<glyph name="Ghe" format="1">
  <advance width="480"/>
  <outline>
    <component base="Gamma"/>
    <contour>
      <point x="231.0" y="682.0" type="move" name="aboveUC"/>
    </contour>
  </outline>
</glyph>
<glyph name="Gheup" format="1">
  <advance width="480"/>
  <outline>
    <contour>
      <point x="450" y="634" type="line"/>
      <point x="504" y="634" type="line"/>
      <point x="552" y="832" type="line"/>
      <point x="528" y="832" type="line"/>
      <point x="482" y="660" type="line"/>
      <point x="456" y="660" type="line"/>
    </contour>
    <component base="Gamma"/>
  </outline>
</glyph>
<glyph name="Hbar" format="1">
  <advance width="630"/>
  <outline>
    <contour>
      <point x="80" y="496" type="line"/>
      <point x="642" y="496" type="line"/>
      <point x="648" y="522" type="line"/>
      <point x="160" y="522" type="line"/>
      <point x="86" y="520" type="line"/>
    </contour>
    <component base="H" xOffset="14"/>
  </outline>
</glyph>
<glyph name="I.alt" format="1">
	<advance width="290"/>
	<outline>
		<contour>
			<point x="-8" y="0" type="line"/>
			<point x="198" y="0" type="line"/>
			<point x="204" y="26" type="line"/>
			<point x="114" y="26" type="line"/>
			<point x="236" y="634" type="line"/>
			<point x="326" y="634" type="line"/>
			<point x="332" y="660" type="line"/>
			<point x="124" y="660" type="line"/>
			<point x="118" y="634" type="line"/>
			<point x="206" y="634" type="line"/>
			<point x="84" y="26" type="line"/>
			<point x="-2" y="26" type="line"/>
		</contour>
		<contour>
			<point name="aboveUC" x="240" y="682" type="move"/>
		</contour>
		<contour>
			<point name="belowLC" x="100" y="-30" type="move"/>
		</contour>
		<contour>
			<point name="ogonekUC" x="94" y="0" type="move"/>
		</contour>
	</outline>
</glyph>
<glyph name="I" format="1">
  <advance width="218"/>
  <outline>
    <contour>
      <point x="40" y="0" type="line"/>
      <point x="70" y="0" type="line"/>
      <point x="202" y="660" type="line"/>
      <point x="172" y="660" type="line"/>
    </contour>
    <contour>
      <point x="202" y="682" type="move" name="aboveUC"/>
    </contour>
    <contour>
      <point x="62" y="-30" type="move" name="belowLC"/>
    </contour>
    <contour>
      <point x="54" y="0" type="move" name="ogonekUC"/>
    </contour>
  </outline>
</glyph>
<glyph name="Ie" format="1">
  <advance width="484"/>
  <outline>
    <component base="E"/>
    <contour>
      <point x="362.0" y="682.0" type="move" name="aboveUC"/>
    </contour>
    <contour>
      <point x="234.0" y="-22.0" type="move" name="belowLC"/>
    </contour>
    <contour>
      <point x="330.0" y="0.0" type="move" name="ogonekUC"/>
    </contour>
  </outline>
</glyph>
<glyph name="J" format="1">
  <advance width="428"/>
  <outline>
    <contour>
      <point x="146" y="-12" type="curve" smooth="yes"/>
      <point x="240" y="-12"/>
      <point x="304" y="58"/>
      <point x="324" y="168" type="curve" smooth="yes"/>
      <point x="422" y="660" type="line"/>
      <point x="392" y="660" type="line"/>
      <point x="294" y="170" type="line" smooth="yes"/>
      <point x="276" y="78"/>
      <point x="226" y="14"/>
      <point x="148" y="14" type="curve" smooth="yes"/>
      <point x="86" y="14"/>
      <point x="46" y="42"/>
      <point x="28" y="102" type="curve"/>
      <point x="2" y="90" type="line"/>
      <point x="22" y="32"/>
      <point x="66" y="-12"/>
    </contour>
    <contour>
      <point x="422" y="682" type="move" name="aboveUC"/>
    </contour>
    <contour>
      <point x="126" y="-30" type="move" name="belowLC"/>
    </contour>
  </outline>
</glyph>
<glyph name="Kabashkir" format="1">
  <advance width="664"/>
  <outline>
    <contour>
      <point x="342" y="660" type="line"/>
      <point x="106" y="660" type="line"/>
      <point x="100" y="634" type="line"/>
      <point x="307" y="634" type="line"/>
    </contour>
    <component base="Ka" xOffset="140"/>
  </outline>
</glyph>
<glyph name="L" format="1">
  <advance width="432"/>
  <outline>
    <contour>
      <point x="40" y="0" type="line"/>
      <point x="370" y="0" type="line"/>
      <point x="376" y="26" type="line"/>
      <point x="76" y="26" type="line"/>
      <point x="202" y="660" type="line"/>
      <point x="172" y="660" type="line"/>
    </contour>
    <contour>
      <point x="202" y="682" type="move" name="aboveUC"/>
    </contour>
    <contour>
      <point x="218" y="-22" type="move" name="belowLC"/>
    </contour>
  </outline>
</glyph>
<glyph name="Lje" format="1">
  <advance width="900"/>
  <outline>
    <contour>
      <point x="416" y="0" type="line"/>
      <point x="582" y="0" type="line" smooth="yes"/>
      <point x="740" y="0"/>
      <point x="846" y="70"/>
      <point x="846" y="210" type="curve" smooth="yes"/>
      <point x="846" y="302"/>
      <point x="770" y="364"/>
      <point x="650" y="364" type="curve" smooth="yes"/>
      <point x="518" y="364" type="line"/>
      <point x="578" y="660" type="line"/>
      <point x="548" y="660" type="line"/>
    </contour>
    <contour>
      <point x="450" y="26" type="line"/>
      <point x="514" y="338" type="line"/>
      <point x="638" y="338" type="line" smooth="yes"/>
      <point x="752" y="338"/>
      <point x="816" y="286"/>
      <point x="816" y="204" type="curve" smooth="yes"/>
      <point x="816" y="84"/>
      <point x="716" y="26"/>
      <point x="572" y="26" type="curve" smooth="yes"/>
    </contour>
    <contour>
      <point x="-36" y="0" type="line"/>
      <point x="-20" y="-8"/>
      <point x="-6" y="-12"/>
      <point x="20" y="-12" type="curve" smooth="yes"/>
      <point x="86" y="-12"/>
      <point x="142" y="66"/>
      <point x="186" y="188" type="curve" smooth="yes"/>
      <point x="213" y="264"/>
      <point x="236" y="346"/>
      <point x="260" y="464" type="curve" smooth="yes"/>
      <point x="294" y="634" type="line"/>
      <point x="543" y="634" type="line"/>
      <point x="416" y="0" type="line"/>
      <point x="436" y="0" type="line"/>
      <point x="568" y="660" type="line"/>
      <point x="270" y="660" type="line"/>
      <point x="230" y="462" type="line" smooth="yes"/>
      <point x="206" y="346"/>
      <point x="184" y="264"/>
      <point x="156" y="192" type="curve" smooth="yes"/>
      <point x="116" y="88"/>
      <point x="76" y="20"/>
      <point x="16" y="20" type="curve" smooth="yes"/>
      <point x="0" y="20"/>
      <point x="-12" y="22"/>
      <point x="-22" y="28" type="curve"/>
    </contour>
  </outline>
</glyph>
<glyph name="Lslash" format="1">
	<advance width="432"/>
	<outline>
		<contour>
			<point x="8" y="222" type="line"/>
			<point x="100" y="267" type="line"/>
			<point x="113" y="271" type="line"/>
			<point x="344" y="380" type="line"/>
			<point x="334" y="404" type="line"/>
			<point x="119" y="301" type="line"/>
			<point x="106" y="297" type="line"/>
			<point x="-2" y="246" type="line"/>
		</contour>
		<component base="L"/>
	</outline>
</glyph>
<glyph name="Ohorn" format="1">
	<advance width="612"/>
	<outline>
		<contour>
			<point x="501" y="620" type="line"/>
			<point x="565" y="631"/>
			<point x="626" y="670"/>
			<point x="626" y="748" type="curve" smooth="yes"/>
			<point x="626" y="762"/>
			<point x="624" y="775"/>
			<point x="618" y="792" type="curve"/>
			<point x="588" y="779" type="line"/>
			<point x="594" y="765"/>
			<point x="594" y="753"/>
			<point x="594" y="742" type="curve" smooth="yes"/>
			<point x="594" y="683"/>
			<point x="547" y="647"/>
			<point x="474" y="644" type="curve"/>
		</contour>
		<component base="O"/>
		<contour>
			<point name="aboveUC" x="406" y="682" type="move"/>
		</contour>
		<contour>
			<point name="belowLC" x="270" y="-22" type="move"/>
		</contour>
	</outline>
</glyph>
<glyph name="Omega.math" format="1">
  <advance width="626"/>
  <outline>
    <contour>
      <point x="-6" y="0" type="line"/>
      <point x="190" y="0" type="line"/>
      <point x="194" y="20" type="line"/>
      <point x="140" y="64"/>
      <point x="92" y="150"/>
      <point x="92" y="268" type="curve" smooth="yes"/>
      <point x="92" y="480"/>
      <point x="222" y="646"/>
      <point x="390" y="646" type="curve" smooth="yes"/>
      <point x="506" y="646"/>
      <point x="570" y="554"/>
      <point x="570" y="424" type="curve" smooth="yes"/>
      <point x="570" y="218"/>
      <point x="450" y="88"/>
      <point x="340" y="20" type="curve"/>
      <point x="334" y="0" type="line"/>
      <point x="532" y="0" type="line"/>
      <point x="536" y="26" type="line"/>
      <point x="400" y="26" type="line"/>
      <point x="402" y="30" type="line"/>
      <point x="500" y="110"/>
      <point x="600" y="232"/>
      <point x="600" y="426" type="curve" smooth="yes"/>
      <point x="600" y="570"/>
      <point x="526" y="672"/>
      <point x="394" y="672" type="curve" smooth="yes"/>
      <point x="208" y="672"/>
      <point x="62" y="496"/>
      <point x="62" y="264" type="curve" smooth="yes"/>
      <point x="62" y="160"/>
      <point x="104" y="78"/>
      <point x="146" y="30" type="curve"/>
      <point x="146" y="26" type="line"/>
      <point x="-2" y="26" type="line"/>
    </contour>
  </outline>
</glyph>
<glyph name="P" format="1">
  <advance width="524"/>
  <outline>
    <contour>
      <point x="40" y="0" type="line"/>
      <point x="70" y="0" type="line"/>
      <point x="128" y="294" type="line"/>
      <point x="256" y="294" type="line" smooth="yes"/>
      <point x="426" y="294"/>
      <point x="532" y="366"/>
      <point x="532" y="510" type="curve" smooth="yes"/>
      <point x="532" y="614"/>
      <point x="460" y="660"/>
      <point x="340" y="660" type="curve" smooth="yes"/>
      <point x="172" y="660" type="line"/>
    </contour>
    <contour>
      <point x="134" y="320" type="line"/>
      <point x="196" y="634" type="line"/>
      <point x="322" y="634" type="line" smooth="yes"/>
      <point x="440" y="634"/>
      <point x="502" y="598"/>
      <point x="502" y="508" type="curve" smooth="yes"/>
      <point x="502" y="384"/>
      <point x="416" y="320"/>
      <point x="250" y="320" type="curve" smooth="yes"/>
    </contour>
    <contour>
      <point x="374" y="682" type="move" name="aboveUC"/>
    </contour>
    <contour>
      <point x="62" y="-30" type="move" name="belowLC"/>
    </contour>
  </outline>
</glyph>
<glyph name="Shcha" format="1">
  <advance width="756"/>
  <outline>
    <contour>
      <point x="596" y="0" type="line"/>
      <point x="640" y="0" type="line"/>
      <point x="602" y="-192" type="line"/>
      <point x="626" y="-192" type="line"/>
      <point x="672" y="10" type="line"/>
      <point x="674" y="26" type="line"/>
      <point x="601" y="26" type="line"/>
    </contour>
    <component base="Sha"/>
  </outline>
</glyph>
<glyph name="Tshe" format="1">
  <advance width="658"/>
  <outline>
    <contour>
      <point x="101" y="635" type="line"/>
      <point x="523" y="635" type="line"/>
      <point x="528" y="660" type="line"/>
      <point x="106" y="660" type="line"/>
    </contour>
    <contour>
      <point x="161" y="0" type="line"/>
      <point x="190" y="0" type="line"/>
      <point x="260" y="348" type="line"/>
      <point x="294" y="360"/>
      <point x="349" y="368"/>
      <point x="391" y="368" type="curve" smooth="yes"/>
      <point x="503" y="368"/>
      <point x="570" y="324"/>
      <point x="545" y="202" type="curve" smooth="yes"/>
      <point x="505" y="0" type="line"/>
      <point x="534" y="0" type="line"/>
      <point x="575" y="202" type="line" smooth="yes"/>
      <point x="602" y="339"/>
      <point x="525" y="396"/>
      <point x="398" y="396" type="curve" smooth="yes"/>
      <point x="355" y="396"/>
      <point x="301" y="386"/>
      <point x="265" y="373" type="curve"/>
      <point x="322" y="660" type="line"/>
      <point x="293" y="660" type="line"/>
    </contour>
  </outline>
</glyph>
<glyph name="Thorn" format="1">
  <advance width="536"/>
  <outline>
    <contour>
      <point x="40" y="0" type="line"/>
      <point x="70" y="0" type="line"/>
      <point x="104" y="170" type="line"/>
      <point x="230" y="170" type="line" smooth="yes"/>
      <point x="400" y="170"/>
      <point x="506" y="242"/>
      <point x="506" y="386" type="curve" smooth="yes"/>
      <point x="506" y="490"/>
      <point x="434" y="536"/>
      <point x="314" y="536" type="curve" smooth="yes"/>
      <point x="178" y="536" type="line"/>
      <point x="202" y="660" type="line"/>
      <point x="172" y="660" type="line"/>
    </contour>
    <contour>
      <point x="110" y="196" type="line"/>
      <point x="172" y="510" type="line"/>
      <point x="296" y="510" type="line" smooth="yes"/>
      <point x="414" y="510"/>
      <point x="476" y="474"/>
      <point x="476" y="384" type="curve" smooth="yes"/>
      <point x="476" y="260"/>
      <point x="390" y="196"/>
      <point x="224" y="196" type="curve" smooth="yes"/>
    </contour>
  </outline>
</glyph>
<glyph name="Uhorn" format="1">
  <advance width="600"/>
  <outline>
    <contour>
      <point x="580" y="636" type="line"/>
      <point x="644.497365625" y="647.085484717"/>
      <point x="706.0" y="686.0"/>
      <point x="706" y="764" type="curve" smooth="yes"/>
      <point x="706" y="778"/>
      <point x="704" y="791"/>
      <point x="698" y="808" type="curve"/>
      <point x="668" y="795" type="line"/>
      <point x="674" y="781"/>
      <point x="674" y="769"/>
      <point x="674" y="758" type="curve" smooth="yes"/>
      <point x="674.0" y="699.0"/>
      <point x="627.785402018" y="662.950085014"/>
      <point x="556" y="660" type="curve"/>
    </contour>
    <component base="U"/>
    <contour>
      <point x="396" y="682" type="move" name="aboveUC"/>
    </contour>
    <contour>
      <point x="254" y="-22" type="move" name="belowLC"/>
    </contour>
  </outline>
</glyph>
<glyph name="V" format="1">
  <advance width="450"/>
  <outline>
    <contour>
      <point x="146" y="0" type="line"/>
      <point x="180" y="0" type="line"/>
      <point x="528" y="660" type="line"/>
      <point x="498" y="660" type="line"/>
      <point x="288" y="260" type="line" smooth="yes"/>
      <point x="250" y="190"/>
      <point x="210" y="110"/>
      <point x="174" y="38" type="curve"/>
      <point x="170" y="38" type="line"/>
      <point x="164" y="112"/>
      <point x="156" y="188"/>
      <point x="148" y="260" type="curve" smooth="yes"/>
      <point x="112" y="660" type="line"/>
      <point x="84" y="660" type="line"/>
    </contour>
    <contour>
      <point x="326" y="682" type="move" name="aboveUC"/>
    </contour>
    <contour>
      <point x="186" y="-30" type="move" name="belowLC"/>
    </contour>
  </outline>
</glyph>
<glyph name="Z" format="1">
  <advance width="502"/>
  <outline>
    <contour>
      <point x="2" y="0" type="line"/>
      <point x="410" y="0" type="line"/>
      <point x="416" y="26" type="line"/>
      <point x="46" y="26" type="line"/>
      <point x="524" y="642" type="line"/>
      <point x="528" y="660" type="line"/>
      <point x="158" y="660" type="line"/>
      <point x="152" y="634" type="line"/>
      <point x="486" y="634" type="line"/>
      <point x="6" y="18" type="line"/>
    </contour>
    <contour>
      <point x="354" y="682" type="move" name="aboveUC"/>
    </contour>
    <contour>
      <point x="208" y="-30" type="move" name="belowLC"/>
    </contour>
  </outline>
</glyph>
<glyph name="acutecmb.cap" format="1">
	<outline>
		<contour>
			<point x="116" y="716" type="line"/>
			<point x="262" y="816" type="line"/>
			<point x="244" y="842" type="line"/>
			<point x="104" y="732" type="line"/>
		</contour>
		<contour>
			<point name="_aboveUC" x="136" y="682" type="move"/>
		</contour>
	</outline>
</glyph>
<glyph name="acutecmb" format="1">
  <advance width="0"/>
  <outline>
    <contour>
      <point x="84" y="580" type="line"/>
      <point x="242" y="716" type="line"/>
      <point x="222" y="740" type="line"/>
      <point x="68" y="598" type="line"/>
    </contour>
    <contour>
      <point x="104" y="502" type="move" name="_aboveLC"/>
    </contour>
  </outline>
</glyph>
<glyph name="alphalatin" format="1">
  <advance width="524"/>
  <outline>
    <component base="a"/>
    <contour>
      <point x="312" y="502" type="move" name="aboveLC"/>
    </contour>
    <contour>
      <point x="222" y="-22" type="move" name="belowLC"/>
    </contour>
  </outline>
</glyph>
<glyph name="arrowdown" format="1">
  <advance width="594"/>
  <outline>
    <contour>
      <point x="294" y="-26" type="line"/>
      <point x="300" y="-26" type="line"/>
      <point x="562" y="232" type="line"/>
      <point x="544" y="250" type="line"/>
      <point x="310" y="18" type="line"/>
      <point x="310" y="526" type="line"/>
      <point x="284" y="526" type="line"/>
      <point x="284" y="18" type="line"/>
      <point x="50" y="250" type="line"/>
      <point x="32" y="232" type="line"/>
    </contour>
  </outline>
</glyph>
<glyph name="backslash" format="1">
  <advance width="350"/>
  <outline>
    <contour>
      <point x="238" y="-160" type="line"/>
      <point x="262" y="-160" type="line"/>
      <point x="114" y="710" type="line"/>
      <point x="90" y="710" type="line"/>
    </contour>
  </outline>
</glyph>
<glyph name="brackhalfbotleft" format="1">
  <advance width="262"/>
  <outline>
    <contour>
      <point x="18" y="-152" type="line"/>
      <point x="164" y="-152" type="line"/>
      <point x="168" y="-130" type="line"/>
      <point x="46" y="-130" type="line"/>
      <point x="126" y="278" type="line"/>
      <point x="104" y="278" type="line"/>
    </contour>
  </outline>
</glyph>
<glyph name="breveacute" format="1">
  <advance width="0"/>
  <outline>
    <contour>
      <point x="114" y="570" type="curve" smooth="yes"/>
      <point x="216" y="570"/>
      <point x="270" y="654"/>
      <point x="288" y="716" type="curve"/>
      <point x="262" y="720" type="line"/>
      <point x="242" y="662"/>
      <point x="194" y="596"/>
      <point x="120" y="596" type="curve" smooth="yes"/>
      <point x="45" y="596"/>
      <point x="18" y="662"/>
      <point x="22" y="720" type="curve"/>
      <point x="-4" y="716" type="line"/>
      <point x="-6" y="654"/>
      <point x="16" y="570"/>
    </contour>
    <contour>
      <point x="132" y="702" type="line"/>
      <point x="240" y="789" type="line"/>
      <point x="220" y="811" type="line"/>
      <point x="117" y="719" type="line"/>
    </contour>
    <contour>
      <point x="104" y="502" type="move" name="_aboveLC"/>
    </contour>
  </outline>
</glyph>
<glyph name="brevecmb" format="1">
	<outline>
		<contour>
			<point x="114" y="570" type="curve" smooth="yes"/>
			<point x="216" y="570"/>
			<point x="270" y="654"/>
			<point x="288" y="716" type="curve"/>
			<point x="262" y="720" type="line"/>
			<point x="242" y="662"/>
			<point x="194" y="596"/>
			<point x="120" y="596" type="curve" smooth="yes"/>
			<point x="45" y="596"/>
			<point x="18" y="662"/>
			<point x="22" y="720" type="curve"/>
			<point x="-4" y="716" type="line"/>
			<point x="-6" y="654"/>
			<point x="16" y="570"/>
		</contour>
		<contour>
			<point name="_aboveLC" x="104" y="502" type="move"/>
		</contour>
	</outline>
</glyph>
<glyph name="brevegrave.cap" format="1">
	<outline>
		<contour>
			<point x="122" y="712" type="curve" smooth="yes"/>
			<point x="211" y="712"/>
			<point x="262" y="779"/>
			<point x="278" y="834" type="curve"/>
			<point x="252" y="838" type="line"/>
			<point x="234" y="786"/>
			<point x="194" y="738"/>
			<point x="128" y="738" type="curve" smooth="yes"/>
			<point x="61" y="738"/>
			<point x="37" y="786"/>
			<point x="40" y="838" type="curve"/>
			<point x="14" y="834" type="line"/>
			<point x="11" y="779"/>
			<point x="37" y="712"/>
		</contour>
		<contour>
			<point x="160" y="819" type="line"/>
			<point x="174" y="831" type="line"/>
			<point x="98" y="938" type="line"/>
			<point x="76" y="921" type="line"/>
		</contour>
		<contour>
			<point name="_aboveUC" x="136" y="682" type="move"/>
		</contour>
	</outline>
</glyph>
<glyph name="brevehoi" format="1">
  <advance width="0"/>
  <outline>
    <contour>
      <point x="114" y="570" type="curve" smooth="yes"/>
      <point x="216" y="570"/>
      <point x="270" y="654"/>
      <point x="288" y="716" type="curve"/>
      <point x="262" y="720" type="line"/>
      <point x="242" y="662"/>
      <point x="194" y="596"/>
      <point x="120" y="596" type="curve" smooth="yes"/>
      <point x="45" y="596"/>
      <point x="18" y="662"/>
      <point x="22" y="720" type="curve"/>
      <point x="-4" y="716" type="line"/>
      <point x="-6" y="654"/>
      <point x="16" y="570"/>
    </contour>
    <contour>
      <point x="114" y="670" type="line"/>
      <point x="153" y="678"/>
      <point x="204" y="701"/>
      <point x="212" y="746" type="curve" smooth="yes"/>
      <point x="222" y="795"/>
      <point x="172" y="814"/>
      <point x="114" y="816" type="curve"/>
      <point x="107" y="790" type="line"/>
      <point x="162" y="788"/>
      <point x="188" y="774"/>
      <point x="182" y="742" type="curve" smooth="yes"/>
      <point x="177" y="718"/>
      <point x="147" y="702"/>
      <point x="110" y="694" type="curve"/>
    </contour>
    <contour>
      <point x="104" y="502" type="move" name="_aboveLC"/>
    </contour>
  </outline>
</glyph>
<glyph name="bstroke" format="1">
  <advance width="498"/>
  <outline>
    <contour>
      <point x="68" y="0" type="line"/>
      <point x="86" y="68" type="line"/>
      <point x="90" y="68" type="line"/>
      <point x="116" y="20"/>
      <point x="158" y="-12"/>
      <point x="216" y="-12" type="curve" smooth="yes"/>
      <point x="348" y="-12"/>
      <point x="472" y="130"/>
      <point x="472" y="308" type="curve" smooth="yes"/>
      <point x="472" y="413"/>
      <point x="416" y="470"/>
      <point x="332" y="470" type="curve" smooth="yes"/>
      <point x="264" y="470"/>
      <point x="202" y="430"/>
      <point x="150" y="388" type="curve"/>
      <point x="148" y="388" type="line"/>
      <point x="168" y="486" type="line"/>
      <point x="216" y="722" type="line"/>
      <point x="188" y="722" type="line"/>
      <point x="44" y="0" type="line"/>
    </contour>
    <contour>
      <point x="330" y="444" type="curve" smooth="yes"/>
      <point x="400" y="444"/>
      <point x="444" y="396"/>
      <point x="444" y="302" type="curve" smooth="yes"/>
      <point x="444" y="159"/>
      <point x="338" y="14"/>
      <point x="218" y="14" type="curve" smooth="yes"/>
      <point x="170" y="14"/>
      <point x="130" y="40"/>
      <point x="92" y="106" type="curve"/>
      <point x="142" y="352" type="line"/>
      <point x="200" y="404"/>
      <point x="274" y="444"/>
    </contour>
    <contour>
      <point x="88" y="584" type="line"/>
      <point x="374" y="584" type="line"/>
      <point x="380" y="610" type="line"/>
      <point x="166" y="610" type="line"/>
      <point x="92" y="606" type="line"/>
    </contour>
  </outline>
</glyph>
<glyph name="c.sups" format="1">
	<advance width="288"/>
	<outline>
		<contour>
			<point x="182" y="402" type="curve" smooth="yes"/>
			<point x="222" y="402"/>
			<point x="254" y="418"/>
			<point x="276" y="434" type="curve"/>
			<point x="264" y="454" type="line"/>
			<point x="242" y="440"/>
			<point x="214" y="426"/>
			<point x="184" y="426" type="curve" smooth="yes"/>
			<point x="132" y="426"/>
			<point x="90" y="462"/>
			<point x="90" y="532" type="curve" smooth="yes"/>
			<point x="90" y="608"/>
			<point x="150" y="710"/>
			<point x="232" y="710" type="curve" smooth="yes"/>
			<point x="262" y="710"/>
			<point x="282" y="700"/>
			<point x="302" y="678" type="curve"/>
			<point x="320" y="696" type="line"/>
			<point x="298" y="720"/>
			<point x="272" y="734"/>
			<point x="236" y="734" type="curve" smooth="yes"/>
			<point x="134" y="734"/>
			<point x="64" y="624"/>
			<point x="64" y="528" type="curve" smooth="yes"/>
			<point x="64" y="450"/>
			<point x="112" y="402"/>
		</contour>
	</outline>
</glyph>
<glyph name="caroncmb.cap" format="1">
	<outline>
		<contour>
			<point x="110" y="710" type="line"/>
			<point x="138" y="710" type="line"/>
			<point x="274" y="824" type="line"/>
			<point x="260" y="840" type="line"/>
			<point x="128" y="738" type="line"/>
			<point x="124" y="738" type="line"/>
			<point x="30" y="838" type="line"/>
			<point x="14" y="824" type="line"/>
		</contour>
		<contour>
			<point name="_aboveUC" x="136" y="682" type="move"/>
		</contour>
	</outline>
</glyph>
<glyph name="cedillacmb.cap" format="1">
  <advance width="0"/>
  <outline>
    <component base="cedillacmb"/>
    <contour>
      <point x="0" y="0" type="move" name="_baseLC"/>
    </contour>
  </outline>
</glyph>
<glyph name="checkbox" format="1">
  <advance width="758"/>
  <outline>
    <contour>
      <point x="70" y="-10" type="line"/>
      <point x="648" y="-10" type="line"/>
      <point x="688" y="40" type="line"/>
      <point x="688" y="670" type="line"/>
      <point x="120" y="670" type="line"/>
      <point x="70" y="626" type="line"/>
    </contour>
    <contour>
      <point x="100" y="20" type="line"/>
      <point x="100" y="604" type="line"/>
      <point x="628" y="604" type="line"/>
      <point x="628" y="20" type="line"/>
    </contour>
  </outline>
</glyph>
<glyph name="circumflexacute.cap" format="1">
	<outline>
		<contour>
			<point x="34" y="710" type="line"/>
			<point x="144" y="778" type="line"/>
			<point x="148" y="778" type="line"/>
			<point x="226" y="710" type="line"/>
			<point x="242" y="724" type="line"/>
			<point x="162" y="808" type="line"/>
			<point x="134" y="808" type="line"/>
			<point x="22" y="726" type="line"/>
		</contour>
		<contour>
			<point x="236" y="772" type="line"/>
			<point x="352" y="854" type="line"/>
			<point x="334" y="878" type="line"/>
			<point x="222" y="790" type="line"/>
		</contour>
		<contour>
			<point name="_aboveUC" x="136" y="682" type="move"/>
		</contour>
	</outline>
</glyph>
<glyph name="circumflexcmb.cap" format="1">
	<outline>
		<contour>
			<point x="14" y="710" type="line"/>
			<point x="146" y="812" type="line"/>
			<point x="150" y="812" type="line"/>
			<point x="244" y="712" type="line"/>
			<point x="260" y="726" type="line"/>
			<point x="164" y="840" type="line"/>
			<point x="136" y="840" type="line"/>
			<point x="0" y="726" type="line"/>
		</contour>
		<contour>
			<point name="_aboveUC" x="136" y="683" type="move"/>
		</contour>
	</outline>
</glyph>
<glyph name="circumflexhoi" format="1">
  <advance width="0"/>
  <outline>
    <contour>
      <point x="10" y="574" type="line"/>
      <point x="132" y="654" type="line"/>
      <point x="136" y="654" type="line"/>
      <point x="222" y="574" type="line"/>
      <point x="238" y="590" type="line"/>
      <point x="148" y="684" type="line"/>
      <point x="120" y="684" type="line"/>
      <point x="-2" y="592" type="line"/>
    </contour>
    <contour>
      <point x="226" y="628" type="line"/>
      <point x="260" y="639"/>
      <point x="300" y="658"/>
      <point x="308" y="702" type="curve" smooth="yes"/>
      <point x="316" y="750"/>
      <point x="269" y="768"/>
      <point x="218" y="770" type="curve"/>
      <point x="214" y="746" type="line"/>
      <point x="262" y="744"/>
      <point x="284" y="730"/>
      <point x="278" y="698" type="curve" smooth="yes"/>
      <point x="274" y="674"/>
      <point x="250" y="660"/>
      <point x="218" y="650" type="curve"/>
    </contour>
    <contour>
      <point x="104" y="502" type="move" name="_aboveLC"/>
    </contour>
  </outline>
</glyph>
<glyph name="circumflextilde.cap" format="1">
  <advance width="0"/>
  <outline>
    <contour>
      <point x="34" y="710" type="line"/>
      <point x="144" y="778" type="line"/>
      <point x="148" y="778" type="line"/>
      <point x="226" y="710" type="line"/>
      <point x="242" y="724" type="line"/>
      <point x="162" y="808" type="line"/>
      <point x="134" y="808" type="line"/>
      <point x="22" y="726" type="line"/>
    </contour>
    <contour>
      <point x="222" y="840" type="curve" smooth="yes"/>
      <point x="276" y="840"/>
      <point x="296" y="884"/>
      <point x="304" y="916" type="curve"/>
      <point x="280" y="918" type="line"/>
      <point x="270" y="887"/>
      <point x="256" y="866"/>
      <point x="228" y="866" type="curve" smooth="yes"/>
      <point x="176" y="866"/>
      <point x="166" y="920"/>
      <point x="96" y="920" type="curve" smooth="yes"/>
      <point x="42" y="920"/>
      <point x="22" y="876"/>
      <point x="16" y="844" type="curve"/>
      <point x="38" y="842" type="line"/>
      <point x="48" y="873"/>
      <point x="62" y="894"/>
      <point x="90" y="894" type="curve" smooth="yes"/>
      <point x="142" y="894"/>
      <point x="152" y="840"/>
    </contour>
    <contour>
      <point x="136" y="682" type="move" name="_aboveUC"/>
    </contour>
  </outline>
</glyph>
<glyph name="circumflextilde" format="1">
  <advance width="0"/>
  <outline>
    <contour>
      <point x="10" y="574" type="line"/>
      <point x="132" y="654" type="line"/>
      <point x="136" y="654" type="line"/>
      <point x="222" y="574" type="line"/>
      <point x="238" y="590" type="line"/>
      <point x="148" y="684" type="line"/>
      <point x="120" y="684" type="line"/>
      <point x="-2" y="592" type="line"/>
    </contour>
    <contour>
      <point x="208" y="706" type="curve" smooth="yes"/>
      <point x="252" y="706"/>
      <point x="270" y="745"/>
      <point x="278" y="776" type="curve"/>
      <point x="254" y="778" type="line"/>
      <point x="244" y="748"/>
      <point x="235" y="732"/>
      <point x="212" y="732" type="curve" smooth="yes"/>
      <point x="166" y="732"/>
      <point x="141" y="774"/>
      <point x="80" y="774" type="curve" smooth="yes"/>
      <point x="36" y="774"/>
      <point x="16" y="735"/>
      <point x="8" y="704" type="curve"/>
      <point x="32" y="702" type="line"/>
      <point x="42" y="732"/>
      <point x="51" y="748"/>
      <point x="74" y="748" type="curve" smooth="yes"/>
      <point x="119" y="748"/>
      <point x="148" y="706"/>
    </contour>
    <contour>
      <point x="104" y="502" type="move" name="_aboveLC"/>
    </contour>
  </outline>
</glyph>
<glyph name="commabelowcmb" format="1">
	<outline>
		<contour>
			<point x="-122" y="-216" type="line"/>
			<point x="-32" y="-214"/>
			<point x="30" y="-181"/>
			<point x="30" y="-124" type="curve" smooth="yes"/>
			<point x="30" y="-89"/>
			<point x="14" y="-72"/>
			<point x="-58" y="-62" type="curve"/>
			<point x="-68" y="-86" type="line"/>
			<point x="-23" y="-90"/>
			<point x="0" y="-102"/>
			<point x="0" y="-132" type="curve" smooth="yes"/>
			<point x="0" y="-165"/>
			<point x="-42" y="-190"/>
			<point x="-124" y="-192" type="curve"/>
		</contour>
		<contour>
			<point name="_belowLC" x="-6" y="-30" type="move"/>
		</contour>
	</outline>
</glyph>
<glyph name="dagger" format="1">
  <advance width="392"/>
  <outline>
    <contour>
      <point x="114" y="-80" type="line"/>
      <point x="144" y="-80" type="line"/>
      <point x="266" y="536" type="line"/>
      <point x="388" y="534" type="line"/>
      <point x="394" y="564" type="line"/>
      <point x="272" y="562" type="line"/>
      <point x="302" y="712" type="line"/>
      <point x="272" y="712" type="line"/>
      <point x="244" y="562" type="line"/>
      <point x="122" y="564" type="line"/>
      <point x="116" y="534" type="line"/>
      <point x="240" y="536" type="line"/>
    </contour>
  </outline>
</glyph>
<glyph name="daggerdbl" format="1">
  <advance width="392"/>
  <outline>
    <contour>
      <point x="116" y="-80" type="line"/>
      <point x="146" y="-80" type="line"/>
      <point x="174" y="70" type="line"/>
      <point x="296" y="68" type="line"/>
      <point x="302" y="98" type="line"/>
      <point x="178" y="96" type="line"/>
      <point x="224" y="316" type="line"/>
      <point x="266" y="536" type="line"/>
      <point x="388" y="534" type="line"/>
      <point x="394" y="564" type="line"/>
      <point x="272" y="562" type="line"/>
      <point x="302" y="712" type="line"/>
      <point x="272" y="712" type="line"/>
      <point x="244" y="562" type="line"/>
      <point x="122" y="564" type="line"/>
      <point x="116" y="534" type="line"/>
      <point x="240" y="536" type="line"/>
      <point x="194" y="316" type="line"/>
      <point x="152" y="96" type="line"/>
      <point x="30" y="98" type="line"/>
      <point x="24" y="68" type="line"/>
      <point x="146" y="70" type="line"/>
    </contour>
  </outline>
</glyph>
<glyph name="diamondblack" format="1">
	<advance width="910"/>
	<outline>
		<contour>
			<point x="475" y="-80" type="line"/>
			<point x="905" y="350" type="line"/>
			<point x="475" y="780" type="line"/>
			<point x="45" y="350" type="line"/>
		</contour>
	</outline>
</glyph>
<glyph name="dotlessi" format="1">
  <advance width="214"/>
  <outline>
    <contour>
      <point x="44" y="0" type="line"/>
      <point x="72" y="0" type="line"/>
      <point x="168" y="478" type="line"/>
      <point x="140" y="478" type="line"/>
    </contour>
    <contour>
      <point x="166" y="502" type="move" name="aboveLC"/>
    </contour>
    <contour>
      <point x="66" y="-22" type="move" name="belowLC"/>
    </contour>
    <contour>
      <point x="58" y="0" type="move" name="ogonekLC"/>
    </contour>
  </outline>
</glyph>
<glyph name="f" format="1">
  <advance width="246"/>
  <outline>
    <contour>
      <point x="76" y="452" type="line"/>
      <point x="138" y="452" type="line"/>
      <point x="48" y="0" type="line"/>
      <point x="76" y="0" type="line"/>
      <point x="166" y="452" type="line"/>
      <point x="274" y="452" type="line"/>
      <point x="280" y="478" type="line"/>
      <point x="172" y="478" type="line"/>
      <point x="196" y="598" type="line" smooth="yes"/>
      <point x="208" y="656"/>
      <point x="240" y="708"/>
      <point x="290" y="708" type="curve" smooth="yes"/>
      <point x="316" y="708"/>
      <point x="332" y="700"/>
      <point x="348" y="690" type="curve"/>
      <point x="362" y="712" type="line"/>
      <point x="344" y="724"/>
      <point x="324" y="734"/>
      <point x="292" y="734" type="curve" smooth="yes"/>
      <point x="236" y="734"/>
      <point x="188" y="692"/>
      <point x="168" y="598" type="curve" smooth="yes"/>
      <point x="144" y="478" type="line"/>
      <point x="80" y="474" type="line"/>
    </contour>
    <contour>
      <point x="308" y="740" type="move" name="aboveLC"/>
    </contour>
    <contour>
      <point x="70" y="-22" type="move" name="belowLC"/>
    </contour>
  </outline>
</glyph>
<glyph name="figuredash" format="1">
  <advance width="456"/>
  <outline>
    <contour>
      <point x="36" y="238" type="line"/>
      <point x="412" y="238" type="line"/>
      <point x="420" y="264" type="line"/>
      <point x="42" y="264" type="line"/>
    </contour>
  </outline>
</glyph>
<glyph name="floorright" format="1">
  <advance width="262"/>
  <outline>
    <contour>
      <point x="-42" y="-48" type="line"/>
      <point x="104" y="-48" type="line"/>
      <point x="240" y="640" type="line"/>
      <point x="216" y="640" type="line"/>
      <point x="84" y="-26" type="line"/>
      <point x="-38" y="-26" type="line"/>
    </contour>
  </outline>
</glyph>
<glyph name="gravecmb.cap" format="1">
	<outline>
		<contour>
			<point x="146" y="706" type="line"/>
			<point x="162" y="720" type="line"/>
			<point x="60" y="848" type="line"/>
			<point x="36" y="828" type="line"/>
		</contour>
		<contour>
			<point name="_aboveUC" x="136" y="682" type="move"/>
		</contour>
	</outline>
</glyph>
<glyph name="greater" format="1">
  <advance width="456"/>
  <outline>
    <contour>
      <point x="48" y="156" type="line"/>
      <point x="438" y="316" type="line"/>
      <point x="438" y="344" type="line"/>
      <point x="48" y="504" type="line"/>
      <point x="48" y="476" type="line"/>
      <point x="278" y="382" type="line"/>
      <point x="400" y="332" type="line"/>
      <point x="400" y="328" type="line"/>
      <point x="278" y="278" type="line"/>
      <point x="48" y="184" type="line"/>
    </contour>
  </outline>
</glyph>
<glyph name="guilsinglright" format="1">
  <advance width="236"/>
  <outline>
    <contour>
      <point x="36" y="74" type="line"/>
      <point x="194" y="230" type="line"/>
      <point x="200" y="262" type="line"/>
      <point x="98" y="428" type="line"/>
      <point x="78" y="416" type="line"/>
      <point x="168" y="250" type="line"/>
      <point x="20" y="90" type="line"/>
    </contour>
  </outline>
</glyph>
<glyph name="h.sups" format="1">
  <advance width="340"/>
  <outline>
    <contour>
      <point x="66" y="410" type="line"/>
      <point x="92" y="410" type="line"/>
      <point x="138" y="640" type="line"/>
      <point x="186" y="688"/>
      <point x="224" y="710"/>
      <point x="260" y="710" type="curve" smooth="yes"/>
      <point x="293" y="710"/>
      <point x="310" y="690"/>
      <point x="310" y="650" type="curve" smooth="yes"/>
      <point x="310" y="638"/>
      <point x="308" y="628"/>
      <point x="304" y="610" type="curve" smooth="yes"/>
      <point x="264" y="410" type="line"/>
      <point x="290" y="410" type="line"/>
      <point x="330" y="614" type="line" smooth="yes"/>
      <point x="333" y="627"/>
      <point x="336" y="641"/>
      <point x="336" y="656" type="curve" smooth="yes"/>
      <point x="336" y="704"/>
      <point x="318" y="734"/>
      <point x="262" y="734" type="curve" smooth="yes"/>
      <point x="222" y="734"/>
      <point x="186" y="710"/>
      <point x="148" y="678" type="curve"/>
      <point x="144" y="678" type="line"/>
      <point x="160" y="752" type="line"/>
      <point x="186" y="884" type="line"/>
      <point x="160" y="884" type="line"/>
    </contour>
  </outline>
</glyph>
<glyph name="hoicmb" format="1">
	<outline>
		<contour>
			<point x="94" y="576" type="line"/>
			<point x="140" y="590"/>
			<point x="188" y="612"/>
			<point x="198" y="662" type="curve" smooth="yes"/>
			<point x="206" y="712"/>
			<point x="154" y="732"/>
			<point x="96" y="734" type="curve"/>
			<point x="90" y="708" type="line"/>
			<point x="142" y="706"/>
			<point x="172" y="690"/>
			<point x="166" y="658" type="curve" smooth="yes"/>
			<point x="162" y="628"/>
			<point x="130" y="612"/>
			<point x="90" y="600" type="curve"/>
		</contour>
		<contour>
			<point name="_aboveLC" x="104" y="502" type="move"/>
		</contour>
	</outline>
</glyph>
<glyph name="hungarumlautcmb" format="1">
	<outline>
		<contour>
			<point x="62" y="574" type="line"/>
			<point x="182" y="724" type="line"/>
			<point x="160" y="742" type="line"/>
			<point x="44" y="586" type="line"/>
		</contour>
		<contour>
			<point x="190" y="574" type="line"/>
			<point x="310" y="724" type="line"/>
			<point x="288" y="742" type="line"/>
			<point x="172" y="586" type="line"/>
		</contour>
		<contour>
			<point name="_aboveLC" x="104" y="502" type="move"/>
		</contour>
	</outline>
</glyph>
<glyph name="hyphen" format="1">
  <advance width="282"/>
  <outline>
    <contour>
      <point x="36" y="236" type="line"/>
      <point x="242" y="236" type="line"/>
      <point x="248" y="264" type="line"/>
      <point x="42" y="264" type="line"/>
    </contour>
  </outline>
</glyph>
<glyph name="i" format="1">
	<advance width="214"/>
	<outline>
		<contour>
			<point x="44" y="0" type="line"/>
			<point x="72" y="0" type="line"/>
			<point x="168" y="478" type="line"/>
			<point x="140" y="478" type="line"/>
		</contour>
		<contour>
			<point x="180" y="600" type="curve" smooth="yes"/>
			<point x="198" y="600"/>
			<point x="216" y="616"/>
			<point x="216" y="638" type="curve" smooth="yes"/>
			<point x="216" y="656"/>
			<point x="204" y="668"/>
			<point x="188" y="668" type="curve" smooth="yes"/>
			<point x="170" y="668"/>
			<point x="152" y="652"/>
			<point x="152" y="628" type="curve" smooth="yes"/>
			<point x="152" y="612"/>
			<point x="164" y="600"/>
		</contour>
		<contour>
			<point name="aboveLC" x="198" y="678" type="move"/>
		</contour>
		<contour>
			<point name="belowLC" x="64" y="-22" type="move"/>
		</contour>
		<contour>
			<point name="ogonekLC" x="44" y="0" type="move"/>
		</contour>
	</outline>
</glyph>
<glyph name="j" format="1">
  <advance width="214"/>
  <outline>
    <contour>
      <point x="-60" y="-234" type="curve" smooth="yes"/>
      <point x="0" y="-234"/>
      <point x="34" y="-184"/>
      <point x="52" y="-98" type="curve" smooth="yes"/>
      <point x="168" y="478" type="line"/>
      <point x="140" y="478" type="line"/>
      <point x="22" y="-104" type="line" smooth="yes"/>
      <point x="8" y="-166"/>
      <point x="-18" y="-208"/>
      <point x="-58" y="-208" type="curve" smooth="yes"/>
      <point x="-84" y="-208"/>
      <point x="-94" y="-202"/>
      <point x="-106" y="-194" type="curve"/>
      <point x="-118" y="-218" type="line"/>
      <point x="-104" y="-226"/>
      <point x="-88" y="-234"/>
    </contour>
    <contour>
      <point x="180" y="600" type="curve" smooth="yes"/>
      <point x="198" y="600"/>
      <point x="216" y="616"/>
      <point x="216" y="638" type="curve" smooth="yes"/>
      <point x="216" y="656"/>
      <point x="204" y="668"/>
      <point x="188" y="668" type="curve" smooth="yes"/>
      <point x="170" y="668"/>
      <point x="152" y="652"/>
      <point x="152" y="628" type="curve" smooth="yes"/>
      <point x="152" y="612"/>
      <point x="164" y="600"/>
    </contour>
    <contour>
      <point x="198" y="678" type="move" name="aboveLC"/>
    </contour>
    <contour>
      <point x="-44" y="-230" type="move" name="belowLC"/>
    </contour>
  </outline>
</glyph>
<glyph name="j.sups" format="1">
  <advance width="150"/>
  <outline>
    <contour>
      <point x="-2" y="258" type="curve" smooth="yes"/>
      <point x="44" y="258"/>
      <point x="69" y="290"/>
      <point x="80" y="348" type="curve" smooth="yes"/>
      <point x="154" y="726" type="line"/>
      <point x="128" y="726" type="line"/>
      <point x="54" y="348" type="line" smooth="yes"/>
      <point x="46" y="310"/>
      <point x="30" y="282"/>
      <point x="0" y="282" type="curve" smooth="yes"/>
      <point x="-16" y="282"/>
      <point x="-26" y="288"/>
      <point x="-34" y="292" type="curve"/>
      <point x="-46" y="272" type="line"/>
      <point x="-32" y="264"/>
      <point x="-18" y="258"/>
    </contour>
    <contour>
      <point x="158" y="802" type="curve" smooth="yes"/>
      <point x="174" y="802"/>
      <point x="186" y="816"/>
      <point x="186" y="832" type="curve" smooth="yes"/>
      <point x="186" y="846"/>
      <point x="176" y="856"/>
      <point x="164" y="856" type="curve" smooth="yes"/>
      <point x="148" y="856"/>
      <point x="136" y="842"/>
      <point x="136" y="826" type="curve" smooth="yes"/>
      <point x="136" y="812"/>
      <point x="146" y="802"/>
    </contour>
  </outline>
</glyph>
<glyph name="k.sups" format="1">
	<advance width="300"/>
	<outline>
		<contour>
			<point x="66" y="410" type="line"/>
			<point x="92" y="410" type="line"/>
			<point x="108" y="496" type="line"/>
			<point x="198" y="584" type="line"/>
			<point x="270" y="410" type="line"/>
			<point x="296" y="410" type="line"/>
			<point x="218" y="600" type="line"/>
			<point x="340" y="726" type="line"/>
			<point x="310" y="726" type="line"/>
			<point x="120" y="540" type="line"/>
			<point x="116" y="540" type="line"/>
			<point x="186" y="884" type="line"/>
			<point x="160" y="884" type="line"/>
		</contour>
	</outline>
</glyph>
<glyph name="k.sups" format="1">
  <advance width="300"/>
  <outline>
    <contour>
      <point x="66" y="410" type="line"/>
      <point x="92" y="410" type="line"/>
      <point x="108" y="496" type="line"/>
      <point x="198" y="584" type="line"/>
      <point x="270" y="410" type="line"/>
      <point x="296" y="410" type="line"/>
      <point x="218" y="600" type="line"/>
      <point x="340" y="726" type="line"/>
      <point x="310" y="726" type="line"/>
      <point x="120" y="540" type="line"/>
      <point x="116" y="540" type="line"/>
      <point x="186" y="884" type="line"/>
      <point x="160" y="884" type="line"/>
    </contour>
  </outline>
</glyph>
<glyph name="l.alt" format="1">
  <advance width="216"/>
  <outline>
    <contour>
      <point x="44" y="0" type="line"/>
      <point x="72" y="0" type="line"/>
      <point x="216" y="722" type="line"/>
      <point x="188" y="722" type="line"/>
    </contour>
    <contour>
      <point x="206" y="730" type="move" name="aboveLC"/>
    </contour>
    <contour>
      <point x="60" y="-22" type="move" name="belowLC"/>
    </contour>
  </outline>
</glyph>
<glyph name="l.sups" format="1">
  <advance width="152"/>
  <outline>
    <contour>
      <point x="76" y="460" type="line" smooth="yes"/>
      <point x="74" y="452"/>
      <point x="72" y="442"/>
      <point x="72" y="434" type="curve" smooth="yes"/>
      <point x="72" y="414"/>
      <point x="82" y="402"/>
      <point x="100" y="402" type="curve" smooth="yes"/>
      <point x="110" y="402"/>
      <point x="119" y="404"/>
      <point x="127" y="407" type="curve"/>
      <point x="124" y="431" type="line"/>
      <point x="118" y="428"/>
      <point x="113" y="428"/>
      <point x="110" y="428" type="curve" smooth="yes"/>
      <point x="103" y="428"/>
      <point x="98" y="432"/>
      <point x="98" y="438" type="curve" smooth="yes"/>
      <point x="98" y="442"/>
      <point x="98" y="444"/>
      <point x="100" y="453" type="curve" smooth="yes"/>
      <point x="186" y="884" type="line"/>
      <point x="160" y="884" type="line"/>
    </contour>
  </outline>
</glyph>
<glyph name="logicalnot" format="1">
  <advance width="456"/>
  <outline>
    <contour>
      <point x="408" y="110" type="line"/>
      <point x="436" y="110" type="line"/>
      <point x="436" y="344" type="line"/>
      <point x="48" y="344" type="line"/>
      <point x="48" y="318" type="line"/>
      <point x="408" y="318" type="line"/>
    </contour>
  </outline>
</glyph>
<glyph name="m.sups" format="1">
	<advance width="522"/>
	<outline>
		<contour>
			<point x="66" y="410" type="line"/>
			<point x="92" y="410" type="line"/>
			<point x="138" y="640" type="line"/>
			<point x="180" y="684"/>
			<point x="222" y="710"/>
			<point x="252" y="710" type="curve" smooth="yes"/>
			<point x="286" y="710"/>
			<point x="304" y="690"/>
			<point x="304" y="650" type="curve" smooth="yes"/>
			<point x="304" y="638"/>
			<point x="302" y="628"/>
			<point x="298" y="610" type="curve" smooth="yes"/>
			<point x="258" y="410" type="line"/>
			<point x="284" y="410" type="line"/>
			<point x="330" y="640" type="line"/>
			<point x="370" y="684"/>
			<point x="412" y="710"/>
			<point x="442" y="710" type="curve" smooth="yes"/>
			<point x="476" y="710"/>
			<point x="494" y="690"/>
			<point x="494" y="650" type="curve" smooth="yes"/>
			<point x="494" y="640"/>
			<point x="492" y="628"/>
			<point x="488" y="610" type="curve" smooth="yes"/>
			<point x="448" y="410" type="line"/>
			<point x="474" y="410" type="line"/>
			<point x="514" y="614" type="line" smooth="yes"/>
			<point x="518" y="632"/>
			<point x="520" y="644"/>
			<point x="520" y="656" type="curve" smooth="yes"/>
			<point x="520" y="704"/>
			<point x="500" y="734"/>
			<point x="444" y="734" type="curve" smooth="yes"/>
			<point x="410" y="734"/>
			<point x="372" y="710"/>
			<point x="328" y="672" type="curve"/>
			<point x="324" y="704"/>
			<point x="310" y="734"/>
			<point x="254" y="734" type="curve" smooth="yes"/>
			<point x="220" y="734"/>
			<point x="182" y="710"/>
			<point x="148" y="678" type="curve"/>
			<point x="144" y="678" type="line"/>
			<point x="150" y="726" type="line"/>
			<point x="128" y="726" type="line"/>
		</contour>
	</outline>
</glyph>
<glyph name="macronbelowcmb" format="1">
	<outline>
		<component base="macroncmb" xOffset="-150" yOffset="-770"/>
		<contour>
			<point name="_belowLC" x="-6" y="-30" type="move"/>
		</contour>
	</outline>
</glyph>
<glyph name="macroncmb" format="1">
  <advance width="0"/>
  <outline>
    <contour>
      <point x="4" y="608" type="line"/>
      <point x="236" y="608" type="line"/>
      <point x="240" y="634" type="line"/>
      <point x="8" y="634" type="line"/>
    </contour>
    <contour>
      <point x="104" y="502" type="move" name="_aboveLC"/>
    </contour>
  </outline>
</glyph>
<glyph name="mu.math" format="1">
	<advance width="510"/>
	<outline>
		<contour>
			<point x="164" y="478" type="line"/>
			<point x="136" y="478" type="line"/>
			<point x="0" y="-200" type="line"/>
			<point x="28" y="-200" type="line"/>
			<point x="58" y="-42" type="line"/>
			<point x="76" y="58" type="line"/>
			<point x="92" y="7"/>
			<point x="132" y="-12"/>
			<point x="180" y="-12" type="curve" smooth="yes"/>
			<point x="238" y="-12"/>
			<point x="292" y="28"/>
			<point x="352" y="80" type="curve"/>
			<point x="356" y="80" type="line"/>
			<point x="344" y="0" type="line"/>
			<point x="368" y="0" type="line"/>
			<point x="464" y="478" type="line"/>
			<point x="436" y="478" type="line"/>
			<point x="364" y="120" type="line"/>
			<point x="288" y="46"/>
			<point x="228" y="14"/>
			<point x="184" y="14" type="curve" smooth="yes"/>
			<point x="120" y="14"/>
			<point x="94" y="46"/>
			<point x="94" y="108" type="curve" smooth="yes"/>
			<point x="94" y="128"/>
			<point x="96" y="142"/>
			<point x="102" y="172" type="curve" smooth="yes"/>
		</contour>
	</outline>
</glyph>
<glyph name="ohorntilde" format="1">
  <advance width="500"/>
  <outline>
    <contour>
      <point x="388" y="580" type="curve" smooth="yes"/>
      <point x="449" y="580"/>
      <point x="476" y="646"/>
      <point x="490" y="702" type="curve"/>
      <point x="464" y="704" type="line"/>
      <point x="452" y="651"/>
      <point x="430" y="604"/>
      <point x="392" y="604" type="curve" smooth="yes"/>
      <point x="333" y="604"/>
      <point x="331" y="706"/>
      <point x="260" y="706" type="curve" smooth="yes"/>
      <point x="199" y="706"/>
      <point x="172" y="642"/>
      <point x="158" y="584" type="curve"/>
      <point x="184" y="582" type="line"/>
      <point x="196" y="637"/>
      <point x="218" y="682"/>
      <point x="256" y="682" type="curve" smooth="yes"/>
      <point x="315" y="682"/>
      <point x="317" y="580"/>
    </contour>
    <component base="ohorn"/>
  </outline>
</glyph>
<glyph name="one.onum" format="1">
  <advance width="316"/>
  <outline>
    <contour>
      <point x="96" y="0" type="line"/>
      <point x="124" y="0" type="line"/>
      <point x="240" y="570" type="line"/>
      <point x="216" y="570" type="line"/>
      <point x="186" y="552"/>
      <point x="140" y="538"/>
      <point x="92" y="532" type="curve"/>
      <point x="88" y="512" type="line"/>
      <point x="200" y="512" type="line"/>
    </contour>
  </outline>
</glyph>
<glyph name="prime" format="1">
  <advance width="202"/>
  <outline>
    <contour>
      <point x="126" y="498" type="line"/>
      <point x="146" y="498" type="line"/>
      <point x="196" y="630" type="line"/>
      <point x="216" y="694" type="line"/>
      <point x="190" y="694" type="line"/>
    </contour>
  </outline>
</glyph>
<glyph name="product" format="1">
  <advance width="618"/>
  <outline>
    <contour>
      <point x="104" y="-120" type="line"/>
      <point x="132" y="-120" type="line"/>
      <point x="132" y="614" type="line"/>
      <point x="506" y="614" type="line"/>
      <point x="506" y="-120" type="line"/>
      <point x="534" y="-120" type="line"/>
      <point x="534" y="640" type="line"/>
      <point x="104" y="640" type="line"/>
    </contour>
  </outline>
</glyph>
<glyph name="q" format="1">
	<advance width="524"/>
	<outline>
		<contour>
			<point x="346" y="-42" type="line"/>
			<point x="310" y="-222" type="line"/>
			<point x="338" y="-222" type="line"/>
			<point x="478" y="478" type="line"/>
			<point x="454" y="478" type="line"/>
			<point x="436" y="410" type="line"/>
			<point x="432" y="410" type="line"/>
			<point x="406" y="458"/>
			<point x="364" y="490"/>
			<point x="306" y="490" type="curve" smooth="yes"/>
			<point x="174" y="490"/>
			<point x="46" y="344"/>
			<point x="46" y="160" type="curve" smooth="yes"/>
			<point x="46" y="48"/>
			<point x="102" y="-12"/>
			<point x="186" y="-12" type="curve" smooth="yes"/>
			<point x="254" y="-12"/>
			<point x="318" y="28"/>
			<point x="368" y="80" type="curve"/>
			<point x="370" y="80" type="line"/>
		</contour>
		<contour>
			<point x="188" y="14" type="curve" smooth="yes"/>
			<point x="118" y="14"/>
			<point x="74" y="64"/>
			<point x="74" y="166" type="curve" smooth="yes"/>
			<point x="74" y="314"/>
			<point x="184" y="464"/>
			<point x="304" y="464" type="curve" smooth="yes"/>
			<point x="352" y="464"/>
			<point x="392" y="438"/>
			<point x="430" y="372" type="curve"/>
			<point x="378" y="122" type="line"/>
			<point x="318" y="54"/>
			<point x="244" y="14"/>
		</contour>
		<contour>
			<point name="aboveLC" x="318" y="502" type="move"/>
		</contour>
		<contour>
			<point name="belowLC" x="332" y="-218" type="move"/>
		</contour>
	</outline>
</glyph>
<glyph name="quotesingle" format="1">
  <advance width="202"/>
  <outline>
    <contour>
      <point x="134" y="478" type="line"/>
      <point x="156" y="478" type="line"/>
      <point x="186" y="608" type="line"/>
      <point x="198" y="672" type="line"/>
      <point x="170" y="672" type="line"/>
      <point x="158" y="608" type="line"/>
    </contour>
  </outline>
</glyph>
<glyph name="ringcmb.cap" format="1">
	<outline>
		<contour>
			<point x="130" y="702" type="curve" smooth="yes"/>
			<point x="182" y="702"/>
			<point x="222" y="742"/>
			<point x="222" y="792" type="curve" smooth="yes"/>
			<point x="222" y="842"/>
			<point x="188" y="866"/>
			<point x="150" y="866" type="curve" smooth="yes"/>
			<point x="98" y="866"/>
			<point x="58" y="826"/>
			<point x="58" y="776" type="curve" smooth="yes"/>
			<point x="58" y="726"/>
			<point x="92" y="702"/>
		</contour>
		<contour>
			<point x="132" y="724" type="curve" smooth="yes"/>
			<point x="101" y="724"/>
			<point x="82" y="744"/>
			<point x="82" y="778" type="curve" smooth="yes"/>
			<point x="82" y="816"/>
			<point x="113" y="844"/>
			<point x="148" y="844" type="curve" smooth="yes"/>
			<point x="180" y="844"/>
			<point x="198" y="824"/>
			<point x="198" y="790" type="curve" smooth="yes"/>
			<point x="198" y="752"/>
			<point x="167" y="724"/>
		</contour>
		<contour>
			<point name="_aboveUC" x="136" y="682" type="move"/>
		</contour>
	</outline>
</glyph>
<glyph name="ringcmb" format="1">
	<outline>
		<contour>
			<point x="118" y="548" type="curve" smooth="yes"/>
			<point x="176" y="548"/>
			<point x="216" y="599"/>
			<point x="216" y="656" type="curve" smooth="yes"/>
			<point x="216" y="706"/>
			<point x="180" y="732"/>
			<point x="136" y="732" type="curve" smooth="yes"/>
			<point x="78" y="732"/>
			<point x="38" y="681"/>
			<point x="38" y="624" type="curve" smooth="yes"/>
			<point x="38" y="574"/>
			<point x="74" y="548"/>
		</contour>
		<contour>
			<point x="120" y="570" type="curve" smooth="yes"/>
			<point x="84" y="570"/>
			<point x="62" y="592"/>
			<point x="62" y="626" type="curve" smooth="yes"/>
			<point x="62" y="672"/>
			<point x="95" y="710"/>
			<point x="134" y="710" type="curve" smooth="yes"/>
			<point x="170" y="710"/>
			<point x="192" y="688"/>
			<point x="192" y="654" type="curve" smooth="yes"/>
			<point x="192" y="608"/>
			<point x="159" y="570"/>
		</contour>
		<contour>
			<point name="_aboveLC" x="104" y="502" type="move"/>
		</contour>
	</outline>
</glyph>
<glyph name="ringhalfleftmod" format="1">
  <advance width="168"/>
  <outline>
    <contour>
      <point x="182" y="540" type="curve"/>
      <point x="188" y="560" type="line"/>
      <point x="146" y="560"/>
      <point x="132" y="584"/>
      <point x="132" y="614" type="curve" smooth="yes"/>
      <point x="132" y="654"/>
      <point x="160" y="684"/>
      <point x="212" y="686" type="curve"/>
      <point x="216" y="706" type="line"/>
      <point x="148" y="706"/>
      <point x="106" y="664"/>
      <point x="106" y="608" type="curve" smooth="yes"/>
      <point x="106" y="570"/>
      <point x="132" y="538"/>
    </contour>
  </outline>
</glyph>
<glyph name="s.sups" format="1">
  <advance width="260"/>
  <outline>
    <contour>
      <point x="142" y="402" type="curve" smooth="yes"/>
      <point x="206" y="402"/>
      <point x="254" y="436"/>
      <point x="254" y="496" type="curve" smooth="yes"/>
      <point x="254" y="530"/>
      <point x="234" y="557"/>
      <point x="174" y="586" type="curve" smooth="yes"/>
      <point x="138" y="604"/>
      <point x="114" y="622"/>
      <point x="114" y="648" type="curve" smooth="yes"/>
      <point x="114" y="682"/>
      <point x="144" y="710"/>
      <point x="186" y="710" type="curve" smooth="yes"/>
      <point x="218" y="710"/>
      <point x="244" y="694"/>
      <point x="262" y="676" type="curve"/>
      <point x="280" y="696" type="line"/>
      <point x="256" y="718"/>
      <point x="226" y="734"/>
      <point x="188" y="734" type="curve" smooth="yes"/>
      <point x="134" y="734"/>
      <point x="88" y="698"/>
      <point x="88" y="644" type="curve" smooth="yes"/>
      <point x="88" y="608"/>
      <point x="116" y="584"/>
      <point x="166" y="560" type="curve" smooth="yes"/>
      <point x="214" y="536"/>
      <point x="228" y="514"/>
      <point x="228" y="492" type="curve" smooth="yes"/>
      <point x="228" y="454"/>
      <point x="192" y="426"/>
      <point x="148" y="426" type="curve" smooth="yes"/>
      <point x="106" y="426"/>
      <point x="74" y="450"/>
      <point x="52" y="474" type="curve"/>
      <point x="32" y="456" type="line"/>
      <point x="60" y="426"/>
      <point x="96" y="402"/>
    </contour>
  </outline>
</glyph>
<glyph name="seven.dnom" format="1">
  <advance width="344"/>
  <outline>
    <contour>
      <point x="82" y="0" type="curve"/>
      <point x="112" y="0" type="line"/>
      <point x="140" y="124"/>
      <point x="188" y="244"/>
      <point x="320" y="372" type="curve"/>
      <point x="322" y="390" type="line"/>
      <point x="76" y="390" type="line"/>
      <point x="70" y="366" type="line"/>
      <point x="284" y="366" type="line"/>
      <point x="176" y="256"/>
      <point x="116" y="136"/>
    </contour>
  </outline>
</glyph>
<glyph name="seven.onum" format="1">
  <advance width="436"/>
  <outline>
    <contour>
      <point x="98" y="-70" type="curve"/>
      <point x="130" y="-70" type="line"/>
      <point x="180" y="174"/>
      <point x="246" y="356"/>
      <point x="446" y="550" type="curve"/>
      <point x="450" y="570" type="line"/>
      <point x="88" y="570" type="line"/>
      <point x="82" y="544" type="line"/>
      <point x="408" y="544" type="line"/>
      <point x="226" y="362"/>
      <point x="154" y="184"/>
    </contour>
  </outline>
</glyph>
<glyph name="seven.pnum" format="1">
  <advance width="436"/>
  <outline>
    <contour>
      <point x="120" y="0" type="curve"/>
      <point x="152" y="0" type="line"/>
      <point x="202" y="244"/>
      <point x="270" y="426"/>
      <point x="468" y="620" type="curve"/>
      <point x="472" y="640" type="line"/>
      <point x="110" y="640" type="line"/>
      <point x="104" y="614" type="line"/>
      <point x="430" y="614" type="line"/>
      <point x="250" y="432"/>
      <point x="176" y="254"/>
    </contour>
  </outline>
</glyph>
<glyph name="seven.tnum" format="1">
  <advance width="456"/>
  <outline>
    <contour>
      <point x="122" y="-70" type="curve"/>
      <point x="154" y="-70" type="line"/>
      <point x="204" y="174"/>
      <point x="272" y="356"/>
      <point x="474" y="550" type="curve"/>
      <point x="478" y="570" type="line"/>
      <point x="106" y="570" type="line"/>
      <point x="100" y="544" type="line"/>
      <point x="436" y="544" type="line"/>
      <point x="252" y="362"/>
      <point x="178" y="184"/>
    </contour>
  </outline>
</glyph>
<glyph name="squareshadow" format="1">
  <advance width="910"/>
  <outline>
    <contour>
      <point x="65" y="-60" type="line"/>
      <point x="843" y="-60" type="line"/>
      <point x="885" y="-8" type="line"/>
      <point x="885" y="760" type="line"/>
      <point x="117" y="760" type="line"/>
      <point x="65" y="718" type="line"/>
    </contour>
    <contour>
      <point x="93" y="-34" type="line"/>
      <point x="93" y="696" type="line"/>
      <point x="821" y="696" type="line"/>
      <point x="821" y="-34" type="line"/>
    </contour>
  </outline>
</glyph>
<glyph name="tildecmb.cap" format="1">
	<outline>
		<contour>
			<point x="206" y="722" type="curve" smooth="yes"/>
			<point x="258" y="722"/>
			<point x="296" y="768"/>
			<point x="306" y="828" type="curve"/>
			<point x="284" y="830" type="line"/>
			<point x="268" y="781"/>
			<point x="243" y="748"/>
			<point x="212" y="748" type="curve" smooth="yes"/>
			<point x="157" y="748"/>
			<point x="146" y="832"/>
			<point x="78" y="832" type="curve" smooth="yes"/>
			<point x="26" y="832"/>
			<point x="-12" y="786"/>
			<point x="-22" y="726" type="curve"/>
			<point x="0" y="724" type="line"/>
			<point x="14" y="773"/>
			<point x="41" y="806"/>
			<point x="72" y="806" type="curve" smooth="yes"/>
			<point x="126" y="806"/>
			<point x="138" y="722"/>
		</contour>
		<contour>
			<point name="_aboveUC" x="136" y="682" type="move"/>
		</contour>
	</outline>
</glyph>
<glyph name="tildecmb" format="1">
	<outline>
		<contour>
			<point x="198" y="580" type="curve" smooth="yes"/>
			<point x="259" y="580"/>
			<point x="286" y="646"/>
			<point x="300" y="702" type="curve"/>
			<point x="274" y="704" type="line"/>
			<point x="262" y="651"/>
			<point x="240" y="604"/>
			<point x="202" y="604" type="curve" smooth="yes"/>
			<point x="143" y="604"/>
			<point x="141" y="706"/>
			<point x="70" y="706" type="curve" smooth="yes"/>
			<point x="9" y="706"/>
			<point x="-18" y="642"/>
			<point x="-32" y="584" type="curve"/>
			<point x="-6" y="582" type="line"/>
			<point x="6" y="637"/>
			<point x="28" y="682"/>
			<point x="66" y="682" type="curve" smooth="yes"/>
			<point x="125" y="682"/>
			<point x="127" y="580"/>
		</contour>
		<contour>
			<point name="_aboveLC" x="104" y="502" type="move"/>
		</contour>
	</outline>
</glyph>
<glyph name="triangleblackdown" format="1">
  <advance width="910"/>
  <outline>
    <contour>
      <point x="875" y="760" type="line"/>
      <point x="75" y="760" type="line"/>
      <point x="75" y="758" type="line"/>
      <point x="473" y="-80" type="line"/>
      <point x="477" y="-80" type="line"/>
      <point x="875" y="758" type="line"/>
    </contour>
  </outline>
</glyph>
<glyph name="triangleblackleft" format="1">
  <advance width="910"/>
  <outline>
    <contour>
      <point x="885" y="750" type="line"/>
      <point x="883" y="750" type="line"/>
      <point x="45" y="352" type="line"/>
      <point x="45" y="348" type="line"/>
      <point x="883" y="-50" type="line"/>
      <point x="885" y="-50" type="line"/>
    </contour>
  </outline>
</glyph>
<glyph name="two.onum" format="1">
  <advance width="448"/>
  <outline>
    <contour>
      <point x="-8" y="0" type="line"/>
      <point x="352" y="0" type="line"/>
      <point x="356" y="26" type="line"/>
      <point x="44" y="26" type="line"/>
      <point x="287" y="222"/>
      <point x="402" y="307"/>
      <point x="402" y="436" type="curve" smooth="yes"/>
      <point x="402" y="518"/>
      <point x="352" y="582"/>
      <point x="260" y="582" type="curve" smooth="yes"/>
      <point x="196" y="582"/>
      <point x="144" y="552"/>
      <point x="88" y="504" type="curve"/>
      <point x="106" y="482" type="line"/>
      <point x="156" y="532"/>
      <point x="210" y="556"/>
      <point x="258" y="556" type="curve" smooth="yes"/>
      <point x="336" y="556"/>
      <point x="374" y="498"/>
      <point x="374" y="430" type="curve" smooth="yes"/>
      <point x="374" y="316"/>
      <point x="267" y="239"/>
      <point x="-6" y="20" type="curve"/>
    </contour>
  </outline>
</glyph>
<glyph name="two.tnum" format="1">
  <advance width="456"/>
  <outline>
    <contour>
      <point x="-8" y="0" type="line"/>
      <point x="362" y="0" type="line"/>
      <point x="366" y="26" type="line"/>
      <point x="44" y="26" type="line"/>
      <point x="294" y="222"/>
      <point x="412" y="307"/>
      <point x="412" y="436" type="curve" smooth="yes"/>
      <point x="412" y="518"/>
      <point x="360" y="582"/>
      <point x="260" y="582" type="curve" smooth="yes"/>
      <point x="196" y="582"/>
      <point x="144" y="552"/>
      <point x="88" y="504" type="curve"/>
      <point x="106" y="482" type="line"/>
      <point x="156" y="532"/>
      <point x="210" y="556"/>
      <point x="258" y="556" type="curve" smooth="yes"/>
      <point x="344" y="556"/>
      <point x="384" y="498"/>
      <point x="384" y="430" type="curve" smooth="yes"/>
      <point x="384" y="316"/>
      <point x="274" y="239"/>
      <point x="-6" y="20" type="curve"/>
    </contour>
  </outline>
</glyph>
<glyph name="uhorn" format="1">
  <advance width="524"/>
  <outline>
    <contour>
      <point x="463" y="456" type="line"/>
      <point x="497.973460497" y="463.993933828"/>
      <point x="574.0" y="500.0"/>
      <point x="574" y="584" type="curve" smooth="yes"/>
      <point x="574" y="600"/>
      <point x="572" y="618"/>
      <point x="566" y="636" type="curve"/>
      <point x="538" y="622" type="line"/>
      <point x="543" y="607"/>
      <point x="545" y="592"/>
      <point x="544" y="580" type="curve" smooth="yes"/>
      <point x="539.999701213" y="514.995144704"/>
      <point x="490.974217123" y="482.07793737"/>
      <point x="440" y="478" type="curve"/>
    </contour>
    <component base="u"/>
    <contour>
      <point x="308" y="502" type="move" name="aboveLC"/>
    </contour>
    <contour>
      <point x="240" y="-22" type="move" name="belowLC"/>
    </contour>
  </outline>
</glyph>
<glyph name="v.sups" format="1">
  <advance width="282"/>
  <outline>
    <contour>
      <point x="126" y="410" type="line"/>
      <point x="162" y="410" type="line"/>
      <point x="340" y="726" type="line"/>
      <point x="312" y="726" type="line"/>
      <point x="202" y="528" type="line"/>
      <point x="150" y="434" type="line"/>
      <point x="146" y="434" type="line"/>
      <point x="130" y="528" type="line"/>
      <point x="100" y="726" type="line"/>
      <point x="74" y="726" type="line"/>
    </contour>
  </outline>
</glyph>
<glyph name="x.sups" format="1">
  <advance width="264"/>
  <outline>
    <contour>
      <point x="8" y="410" type="line"/>
      <point x="40" y="410" type="line"/>
      <point x="118" y="500" type="line"/>
      <point x="164" y="554" type="line"/>
      <point x="168" y="554" type="line"/>
      <point x="196" y="492" type="line"/>
      <point x="232" y="410" type="line"/>
      <point x="258" y="410" type="line"/>
      <point x="188" y="572" type="line"/>
      <point x="320" y="726" type="line"/>
      <point x="288" y="726" type="line"/>
      <point x="220" y="644" type="line"/>
      <point x="178" y="596" type="line"/>
      <point x="174" y="596" type="line"/>
      <point x="148" y="652" type="line"/>
      <point x="116" y="726" type="line"/>
      <point x="90" y="726" type="line"/>
      <point x="156" y="576" type="line"/>
    </contour>
  </outline>
</glyph>
<glyph name="zero.0p" format="1">
  <advance width="474"/>
  <outline>
    <contour>
      <point x="243" y="270" type="curve" smooth="yes"/>
      <point x="276" y="270"/>
      <point x="303" y="303"/>
      <point x="303" y="336" type="curve" smooth="yes"/>
      <point x="303" y="363"/>
      <point x="291" y="384"/>
      <point x="264" y="384" type="curve" smooth="yes"/>
      <point x="231" y="384"/>
      <point x="201" y="348"/>
      <point x="201" y="315" type="curve" smooth="yes"/>
      <point x="201" y="291"/>
      <point x="216" y="270"/>
    </contour>
    <component base="zero.pnum"/>
  </outline>
</glyph>
<glyph name="zero.0ps" format="1">
  <advance width="474"/>
  <outline>
    <contour>
      <point x="350" y="118" type="line"/>
      <point x="373" y="126" type="line"/>
      <point x="154" y="526" type="line"/>
      <point x="131" y="518" type="line"/>
    </contour>
    <component base="zero.pnum"/>
  </outline>
</glyph>
